<svg width="551" height="88" viewBox="0 0 551 88" fill="none" xmlns="http://www.w3.org/2000/svg">
<mask id="path-1-outside-1_59_423" maskUnits="userSpaceOnUse" x="0" y="0" width="551" height="88" fill="black">
<rect fill="white" width="551" height="88"/>
<path d="M47.152 86.28C32.2187 86.28 20.8267 82.6107 12.976 75.272C5.12533 67.9333 1.2 57.5653 1.2 44.168C1.2 30.344 5.04 19.7627 12.72 12.424C20.4 4.99999 31.8347 1.28799 47.024 1.28799C52.144 1.28799 56.7093 1.67199 60.72 2.43999C64.7307 3.208 68.5707 4.27466 72.24 5.64V26.632C64.9013 23.3893 57.0507 21.768 48.688 21.768C40.9227 21.768 35.1627 23.56 31.408 27.144C27.6533 30.6427 25.776 36.3173 25.776 44.168C25.776 51.848 27.7387 57.3947 31.664 60.808C35.6747 64.136 41.4347 65.8 48.944 65.8C53.04 65.8 57.008 65.416 60.848 64.648C64.7733 63.88 68.656 62.6853 72.496 61.064V82.184C68.8267 83.464 64.944 84.4453 60.848 85.128C56.8373 85.896 52.272 86.28 47.152 86.28ZM119.812 86.28C106.159 86.28 95.7053 82.952 88.452 76.296C81.284 69.64 77.7 58.888 77.7 44.04C77.7 33.8 79.3213 25.5653 82.564 19.336C85.8067 13.0213 90.5427 8.456 96.772 5.64C103.087 2.73866 110.767 1.28799 119.812 1.28799C128.857 1.28799 136.495 2.73866 142.724 5.64C149.039 8.456 153.817 13.0213 157.06 19.336C160.303 25.5653 161.924 33.8 161.924 44.04C161.924 58.888 158.297 69.64 151.044 76.296C143.791 82.952 133.38 86.28 119.812 86.28ZM119.812 65.8C125.956 65.8 130.393 64.0933 133.124 60.68C135.94 57.1813 137.348 51.6347 137.348 44.04C137.348 35.9333 135.94 30.216 133.124 26.888C130.393 23.4747 125.956 21.768 119.812 21.768C113.668 21.768 109.188 23.4747 106.372 26.888C103.641 30.216 102.276 35.9333 102.276 44.04C102.276 51.6347 103.641 57.1813 106.372 60.68C109.188 64.0933 113.668 65.8 119.812 65.8ZM170.885 85V2.56799H191.365L222.469 46.216V2.56799H246.533V85H225.925L194.949 41.48V85H170.885ZM276.058 85V20.488H252.89V2.56799H323.29V20.488H300.122V85H276.058ZM316.2 85L347.816 2.56799H373.288L404.904 85H379.816L372.904 67.464H348.072L341.288 85H316.2ZM351.272 50.184H369.704L360.488 25.992L351.272 50.184ZM450.277 86.28C435.344 86.28 423.952 82.6107 416.101 75.272C408.25 67.9333 404.325 57.5653 404.325 44.168C404.325 30.344 408.165 19.7627 415.845 12.424C423.525 4.99999 434.96 1.28799 450.149 1.28799C455.269 1.28799 459.834 1.67199 463.845 2.43999C467.856 3.208 471.696 4.27466 475.365 5.64V26.632C468.026 23.3893 460.176 21.768 451.813 21.768C444.048 21.768 438.288 23.56 434.533 27.144C430.778 30.6427 428.901 36.3173 428.901 44.168C428.901 51.848 430.864 57.3947 434.789 60.808C438.8 64.136 444.56 65.8 452.069 65.8C456.165 65.8 460.133 65.416 463.973 64.648C467.898 63.88 471.781 62.6853 475.621 61.064V82.184C471.952 83.464 468.069 84.4453 463.973 85.128C459.962 85.896 455.397 86.28 450.277 86.28ZM502.683 85V20.488H479.515V2.56799H549.915V20.488H526.747V85H502.683Z"/>
</mask>
<path d="M12.976 75.272L13.6589 74.5415L12.976 75.272ZM12.72 12.424L13.4109 13.147L13.415 13.143L12.72 12.424ZM72.24 5.64H73.24V4.94511L72.5887 4.70278L72.24 5.64ZM72.24 26.632L71.8358 27.5467L73.24 28.1671V26.632H72.24ZM31.408 27.144L32.0898 27.8757L32.0985 27.8674L31.408 27.144ZM31.664 60.808L31.0078 61.5626L31.0165 61.5702L31.0254 61.5776L31.664 60.808ZM60.848 64.648L60.656 63.6666L60.6519 63.6674L60.848 64.648ZM72.496 61.064H73.496V59.5563L72.107 60.1427L72.496 61.064ZM72.496 82.184L72.8254 83.1282L73.496 82.8943V82.184H72.496ZM60.848 85.128L60.6836 84.1416L60.6717 84.1436L60.6599 84.1458L60.848 85.128ZM47.152 85.28C32.3727 85.28 21.2626 81.6493 13.6589 74.5415L12.2931 76.0025C20.3908 83.5721 32.0646 87.28 47.152 87.28V85.28ZM13.6589 74.5415C6.05829 67.4366 2.2 57.3614 2.2 44.168H0.2C0.2 57.7693 4.19238 68.4301 12.2931 76.0025L13.6589 74.5415ZM2.2 44.168C2.2 30.5307 5.98309 20.2446 13.4109 13.147L12.0291 11.701C4.09691 19.2807 0.2 30.1573 0.2 44.168H2.2ZM13.415 13.143C20.8422 5.96337 31.9842 2.28799 47.024 2.28799V0.287994C31.6852 0.287994 19.9578 4.03662 12.025 11.705L13.415 13.143ZM47.024 2.28799C52.096 2.28799 56.5965 2.66856 60.5319 3.42215L60.9081 1.45784C56.8222 0.67543 52.192 0.287994 47.024 0.287994V2.28799ZM60.5319 3.42215C64.4902 4.18012 68.2763 5.23213 71.8913 6.57722L72.5887 4.70278C68.865 3.3172 64.9711 2.23587 60.9081 1.45784L60.5319 3.42215ZM71.24 5.64V26.632H73.24V5.64H71.24ZM72.6442 25.7173C65.1728 22.416 57.1838 20.768 48.688 20.768V22.768C56.9175 22.768 64.6299 24.3627 71.8358 27.5467L72.6442 25.7173ZM48.688 20.768C40.7908 20.768 34.7325 22.5882 30.7175 26.4206L32.0985 27.8674C35.5928 24.5318 41.0545 22.768 48.688 22.768V20.768ZM30.7263 26.4124C26.6822 30.1807 24.776 36.1856 24.776 44.168H26.776C26.776 36.4491 28.6245 31.1046 32.0897 27.8756L30.7263 26.4124ZM24.776 44.168C24.776 51.9972 26.7768 57.8835 31.0078 61.5626L32.3202 60.0534C28.7005 56.9059 26.776 51.6988 26.776 44.168H24.776ZM31.0254 61.5776C35.2801 65.108 41.302 66.8 48.944 66.8V64.8C41.5674 64.8 36.0692 63.1639 32.3026 60.0384L31.0254 61.5776ZM48.944 66.8C53.1028 66.8 57.1367 66.4101 61.0441 65.6286L60.6519 63.6674C56.8793 64.4219 52.9772 64.8 48.944 64.8V66.8ZM61.04 65.6294C65.0357 64.8476 68.9842 63.6322 72.885 61.9853L72.107 60.1427C68.3278 61.7384 64.511 62.9124 60.656 63.6666L61.04 65.6294ZM71.496 61.064V82.184H73.496V61.064H71.496ZM72.1666 81.2398C68.5545 82.4998 64.7273 83.4677 60.6836 84.1416L61.0124 86.1144C65.1607 85.423 69.0988 84.4282 72.8254 83.1282L72.1666 81.2398ZM60.6599 84.1458C56.7245 84.8994 52.224 85.28 47.152 85.28V87.28C52.32 87.28 56.9502 86.8926 61.0361 86.1102L60.6599 84.1458ZM88.452 76.296L87.7715 77.0288L87.7759 77.0328L88.452 76.296ZM82.564 19.336L83.451 19.7977L83.4536 19.7928L82.564 19.336ZM96.772 5.64L97.1839 6.55124L97.1895 6.54868L96.772 5.64ZM142.724 5.64L142.302 6.5465L142.309 6.54996L142.317 6.5533L142.724 5.64ZM157.06 19.336L156.17 19.7928L156.173 19.7977L157.06 19.336ZM151.044 76.296L151.72 77.0328L151.044 76.296ZM133.124 60.68L132.345 60.053L132.343 60.0553L133.124 60.68ZM133.124 26.888L132.343 27.5127L132.352 27.5234L132.361 27.5339L133.124 26.888ZM106.372 26.888L105.601 26.2516L105.599 26.2537L106.372 26.888ZM106.372 60.68L105.584 61.2953L105.592 61.3059L105.601 61.3164L106.372 60.68ZM119.812 85.28C106.312 85.28 96.136 81.9899 89.1281 75.5592L87.7759 77.0328C95.2747 83.9141 106.006 87.28 119.812 87.28V85.28ZM89.1325 75.5632C82.2537 69.1758 78.7 58.7532 78.7 44.04H76.7C76.7 59.0228 80.3143 70.1042 87.7716 77.0288L89.1325 75.5632ZM78.7 44.04C78.7 33.8924 80.3088 25.8342 83.451 19.7977L81.677 18.8743C78.3339 25.2965 76.7 33.7076 76.7 44.04H78.7ZM83.4536 19.7928C86.5972 13.6709 91.169 9.27031 97.1839 6.55122L96.3601 4.72878C89.9164 7.64169 85.0161 12.3718 81.6744 18.8792L83.4536 19.7928ZM97.1895 6.54868C103.34 3.72277 110.869 2.28799 119.812 2.28799V0.287994C110.664 0.287994 102.833 1.75456 96.3545 4.73132L97.1895 6.54868ZM119.812 2.28799C128.756 2.28799 136.24 3.72299 142.302 6.5465L143.146 4.7335C136.75 1.75434 128.959 0.287994 119.812 0.287994V2.28799ZM142.317 6.5533C148.417 9.27386 153.029 13.6749 156.17 19.7928L157.95 18.8792C154.606 12.3677 149.66 7.63813 143.131 4.7267L142.317 6.5533ZM156.173 19.7977C159.315 25.8342 160.924 33.8924 160.924 44.04H162.924C162.924 33.7076 161.29 25.2965 157.947 18.8743L156.173 19.7977ZM160.924 44.04C160.924 58.7502 157.329 69.1711 150.368 75.5592L151.72 77.0328C159.265 70.1089 162.924 59.0258 162.924 44.04H160.924ZM150.368 75.5592C143.359 81.9909 133.225 85.28 119.812 85.28V87.28C133.535 87.28 144.222 83.9131 151.72 77.0328L150.368 75.5592ZM119.812 66.8C126.13 66.8 130.916 65.0407 133.905 61.3047L132.343 60.0553C129.871 63.146 125.782 64.8 119.812 64.8V66.8ZM133.903 61.307C136.932 57.5441 138.348 51.719 138.348 44.04H136.348C136.348 51.5503 134.948 56.8186 132.345 60.053L133.903 61.307ZM138.348 44.04C138.348 35.8755 136.942 29.8515 133.887 26.2421L132.361 27.5339C134.938 30.5805 136.348 35.9912 136.348 44.04H138.348ZM133.905 26.2633C130.916 22.5273 126.13 20.768 119.812 20.768V22.768C125.782 22.768 129.871 24.422 132.343 27.5127L133.905 26.2633ZM119.812 20.768C113.491 20.768 108.672 22.5282 105.601 26.2516L107.143 27.5244C109.704 24.4212 113.845 22.768 119.812 22.768V20.768ZM105.599 26.2537C102.639 29.8615 101.276 35.8798 101.276 44.04H103.276C103.276 35.9868 104.644 30.5704 107.145 27.5223L105.599 26.2537ZM101.276 44.04C101.276 51.7143 102.648 57.534 105.584 61.2953L107.16 60.0647C104.635 56.8287 103.276 51.555 103.276 44.04H101.276ZM105.601 61.3164C108.672 65.0398 113.491 66.8 119.812 66.8V64.8C113.845 64.8 109.704 63.1468 107.143 60.0436L105.601 61.3164ZM170.885 85H169.885V86H170.885V85ZM170.885 2.56799V1.56799H169.885V2.56799H170.885ZM191.365 2.56799L192.179 1.98766L191.88 1.56799H191.365V2.56799ZM222.469 46.216L221.655 46.7963L223.469 49.3424V46.216H222.469ZM222.469 2.56799V1.56799H221.469V2.56799H222.469ZM246.533 2.56799H247.533V1.56799H246.533V2.56799ZM246.533 85V86H247.533V85H246.533ZM225.925 85L225.11 85.5799L225.409 86H225.925V85ZM194.949 41.48L195.764 40.9001L193.949 38.3505V41.48H194.949ZM194.949 85V86H195.949V85H194.949ZM171.885 85V2.56799H169.885V85H171.885ZM170.885 3.56799H191.365V1.56799H170.885V3.56799ZM190.551 3.14833L221.655 46.7963L223.283 45.6357L192.179 1.98766L190.551 3.14833ZM223.469 46.216V2.56799H221.469V46.216H223.469ZM222.469 3.56799H246.533V1.56799H222.469V3.56799ZM245.533 2.56799V85H247.533V2.56799H245.533ZM246.533 84H225.925V86H246.533V84ZM226.74 84.4201L195.764 40.9001L194.134 42.0599L225.11 85.5799L226.74 84.4201ZM193.949 41.48V85H195.949V41.48H193.949ZM194.949 84H170.885V86H194.949V84ZM276.058 85H275.058V86H276.058V85ZM276.058 20.488H277.058V19.488H276.058V20.488ZM252.89 20.488H251.89V21.488H252.89V20.488ZM252.89 2.56799V1.56799H251.89V2.56799H252.89ZM323.29 2.56799H324.29V1.56799H323.29V2.56799ZM323.29 20.488V21.488H324.29V20.488H323.29ZM300.122 20.488V19.488H299.122V20.488H300.122ZM300.122 85V86H301.122V85H300.122ZM277.058 85V20.488H275.058V85H277.058ZM276.058 19.488H252.89V21.488H276.058V19.488ZM253.89 20.488V2.56799H251.89V20.488H253.89ZM252.89 3.56799H323.29V1.56799H252.89V3.56799ZM322.29 2.56799V20.488H324.29V2.56799H322.29ZM323.29 19.488H300.122V21.488H323.29V19.488ZM299.122 20.488V85H301.122V20.488H299.122ZM300.122 84H276.058V86H300.122V84ZM316.2 85L315.266 84.6419L314.745 86H316.2V85ZM347.816 2.56799V1.56799H347.129L346.882 2.20989L347.816 2.56799ZM373.288 2.56799L374.222 2.20989L373.975 1.56799H373.288V2.56799ZM404.904 85V86H406.359L405.838 84.6419L404.904 85ZM379.816 85L378.886 85.3667L379.135 86H379.816V85ZM372.904 67.464L373.834 67.0973L373.585 66.464H372.904V67.464ZM348.072 67.464V66.464H347.387L347.139 67.1032L348.072 67.464ZM341.288 85V86H341.973L342.221 85.3608L341.288 85ZM351.272 50.184L350.338 49.828L349.821 51.184H351.272V50.184ZM369.704 50.184V51.184H371.155L370.638 49.828L369.704 50.184ZM360.488 25.992L361.422 25.636L360.488 23.183L359.554 25.636L360.488 25.992ZM317.134 85.3581L348.75 2.9261L346.882 2.20989L315.266 84.6419L317.134 85.3581ZM347.816 3.56799H373.288V1.56799H347.816V3.56799ZM372.354 2.9261L403.97 85.3581L405.838 84.6419L374.222 2.20989L372.354 2.9261ZM404.904 84H379.816V86H404.904V84ZM380.746 84.6333L373.834 67.0973L371.974 67.8307L378.886 85.3667L380.746 84.6333ZM372.904 66.464H348.072V68.464H372.904V66.464ZM347.139 67.1032L340.355 84.6392L342.221 85.3608L349.005 67.8248L347.139 67.1032ZM341.288 84H316.2V86H341.288V84ZM351.272 51.184H369.704V49.184H351.272V51.184ZM370.638 49.828L361.422 25.636L359.554 26.348L368.77 50.54L370.638 49.828ZM359.554 25.636L350.338 49.828L352.206 50.54L361.422 26.348L359.554 25.636ZM416.101 75.272L416.784 74.5415L416.101 75.272ZM415.845 12.424L416.536 13.147L416.54 13.143L415.845 12.424ZM475.365 5.64H476.365V4.94511L475.714 4.70278L475.365 5.64ZM475.365 26.632L474.961 27.5467L476.365 28.1671V26.632H475.365ZM434.533 27.144L435.215 27.8757L435.223 27.8674L434.533 27.144ZM434.789 60.808L434.133 61.5626L434.142 61.5702L434.15 61.5776L434.789 60.808ZM463.973 64.648L463.781 63.6666L463.777 63.6674L463.973 64.648ZM475.621 61.064H476.621V59.5563L475.232 60.1427L475.621 61.064ZM475.621 82.184L475.95 83.1282L476.621 82.8943V82.184H475.621ZM463.973 85.128L463.809 84.1416L463.797 84.1436L463.785 84.1458L463.973 85.128ZM450.277 85.28C435.498 85.28 424.388 81.6493 416.784 74.5415L415.418 76.0025C423.516 83.5721 435.19 87.28 450.277 87.28V85.28ZM416.784 74.5415C409.183 67.4366 405.325 57.3614 405.325 44.168H403.325C403.325 57.7693 407.317 68.4301 415.418 76.0025L416.784 74.5415ZM405.325 44.168C405.325 30.5307 409.108 20.2446 416.536 13.147L415.154 11.701C407.222 19.2807 403.325 30.1573 403.325 44.168H405.325ZM416.54 13.143C423.967 5.96337 435.109 2.28799 450.149 2.28799V0.287994C434.81 0.287994 423.083 4.03662 415.15 11.705L416.54 13.143ZM450.149 2.28799C455.221 2.28799 459.722 2.66856 463.657 3.42215L464.033 1.45784C459.947 0.67543 455.317 0.287994 450.149 0.287994V2.28799ZM463.657 3.42215C467.615 4.18012 471.401 5.23213 475.016 6.57722L475.714 4.70278C471.99 3.3172 468.096 2.23587 464.033 1.45784L463.657 3.42215ZM474.365 5.64V26.632H476.365V5.64H474.365ZM475.769 25.7173C468.298 22.416 460.309 20.768 451.813 20.768V22.768C460.043 22.768 467.755 24.3627 474.961 27.5467L475.769 25.7173ZM451.813 20.768C443.916 20.768 437.858 22.5882 433.843 26.4206L435.223 27.8674C438.718 24.5318 444.18 22.768 451.813 22.768V20.768ZM433.851 26.4124C429.807 30.1807 427.901 36.1856 427.901 44.168H429.901C429.901 36.4491 431.749 31.1046 435.215 27.8756L433.851 26.4124ZM427.901 44.168C427.901 51.9972 429.902 57.8835 434.133 61.5626L435.445 60.0534C431.826 56.9059 429.901 51.6988 429.901 44.168H427.901ZM434.15 61.5776C438.405 65.108 444.427 66.8 452.069 66.8V64.8C444.692 64.8 439.194 63.1639 435.428 60.0384L434.15 61.5776ZM452.069 66.8C456.228 66.8 460.262 66.4101 464.169 65.6286L463.777 63.6674C460.004 64.4219 456.102 64.8 452.069 64.8V66.8ZM464.165 65.6294C468.161 64.8476 472.109 63.6322 476.01 61.9853L475.232 60.1427C471.453 61.7384 467.636 62.9124 463.781 63.6666L464.165 65.6294ZM474.621 61.064V82.184H476.621V61.064H474.621ZM475.292 81.2398C471.68 82.4998 467.852 83.4677 463.809 84.1416L464.137 86.1144C468.286 85.423 472.224 84.4282 475.95 83.1282L475.292 81.2398ZM463.785 84.1458C459.85 84.8994 455.349 85.28 450.277 85.28V87.28C455.445 87.28 460.075 86.8926 464.161 86.1102L463.785 84.1458ZM502.683 85H501.683V86H502.683V85ZM502.683 20.488H503.683V19.488H502.683V20.488ZM479.515 20.488H478.515V21.488H479.515V20.488ZM479.515 2.56799V1.56799H478.515V2.56799H479.515ZM549.915 2.56799H550.915V1.56799H549.915V2.56799ZM549.915 20.488V21.488H550.915V20.488H549.915ZM526.747 20.488V19.488H525.747V20.488H526.747ZM526.747 85V86H527.747V85H526.747ZM503.683 85V20.488H501.683V85H503.683ZM502.683 19.488H479.515V21.488H502.683V19.488ZM480.515 20.488V2.56799H478.515V20.488H480.515ZM479.515 3.56799H549.915V1.56799H479.515V3.56799ZM548.915 2.56799V20.488H550.915V2.56799H548.915ZM549.915 19.488H526.747V21.488H549.915V19.488ZM525.747 20.488V85H527.747V20.488H525.747ZM526.747 84H502.683V86H526.747V84Z" fill="#4282B8" mask="url(#path-1-outside-1_59_423)"/>
</svg>
