<svg width="488" height="88" viewBox="0 0 488 88" fill="none" xmlns="http://www.w3.org/2000/svg">
<mask id="path-1-outside-1_47_212" maskUnits="userSpaceOnUse" x="0" y="0" width="488" height="88" fill="black">
<rect fill="white" width="488" height="88"/>
<path d="M30.768 86.28C25.2213 86.28 19.9733 85.8533 15.024 85C10.0747 84.0613 5.85067 82.7813 2.352 81.16V61.32C6.192 63.112 10.4587 64.5627 15.152 65.672C19.8453 66.7813 24.24 67.336 28.336 67.336C32.6027 67.336 35.8027 66.9947 37.936 66.312C40.1547 65.544 41.264 63.88 41.264 61.32C41.264 59.528 40.624 58.12 39.344 57.096C38.1493 56.072 36.2293 55.1333 33.584 54.28C31.024 53.4267 27.6533 52.36 23.472 51.08C17.9253 49.288 13.5307 47.3253 10.288 45.192C7.04533 43.0587 4.69867 40.456 3.248 37.384C1.88267 34.312 1.2 30.5573 1.2 26.12C1.2 18.0133 4.05867 11.8693 9.776 7.688C15.5787 3.42133 24.1547 1.28799 35.504 1.28799C40.0267 1.28799 44.6773 1.67199 49.456 2.43999C54.32 3.208 58.2453 4.06133 61.232 5V24.968C57.2213 23.3467 53.3813 22.1947 49.712 21.512C46.0427 20.8293 42.5867 20.488 39.344 20.488C35.5893 20.488 32.3893 20.7867 29.744 21.384C27.0987 21.9813 25.776 23.5173 25.776 25.992C25.776 28.1253 26.8853 29.704 29.104 30.728C31.408 31.6667 35.4613 32.904 41.264 34.44C48.0053 36.232 53.1253 38.408 56.624 40.968C60.208 43.528 62.64 46.5147 63.92 49.928C65.2 53.256 65.84 57.0533 65.84 61.32C65.84 68.8293 62.9387 74.888 57.136 79.496C51.3333 84.0187 42.544 86.28 30.768 86.28ZM74.76 85V2.56799H137.224V21H98.824V34.44H132.488V53.128H98.824V66.568H137.224V85H74.76ZM144.885 85V2.56799H187.765C194.506 2.56799 200.01 3.80533 204.277 6.28C208.629 8.75466 211.872 12.2107 214.005 16.648C216.138 21 217.205 26.0773 217.205 31.88C217.205 37.4267 215.797 42.3333 212.981 46.6C210.25 50.7813 206.581 53.9813 201.973 56.2C202.912 56.968 203.722 57.9067 204.405 59.016C205.088 60.04 205.856 61.4907 206.709 63.368L216.181 85H191.093L182.389 65.16C181.706 63.624 180.853 62.5573 179.829 61.96C178.89 61.2773 177.525 60.936 175.733 60.936H168.949V85H144.885ZM168.949 42.504H181.621C185.12 42.504 187.808 41.608 189.685 39.816C191.648 37.9387 192.629 35.2933 192.629 31.88C192.629 24.6267 189.216 21 182.389 21H168.949V42.504ZM246.816 85L215.2 2.56799H240.288L259.488 57.096L278.688 2.56799H303.904L272.288 85H246.816ZM311.01 85V2.56799H335.074V85H311.01ZM390.027 86.28C375.094 86.28 363.702 82.6107 355.851 75.272C348 67.9333 344.075 57.5653 344.075 44.168C344.075 30.344 347.915 19.7627 355.595 12.424C363.275 4.99999 374.71 1.28799 389.899 1.28799C395.019 1.28799 399.584 1.67199 403.595 2.43999C407.606 3.208 411.446 4.27466 415.115 5.64V26.632C407.776 23.3893 399.926 21.768 391.563 21.768C383.798 21.768 378.038 23.56 374.283 27.144C370.528 30.6427 368.651 36.3173 368.651 44.168C368.651 51.848 370.614 57.3947 374.539 60.808C378.55 64.136 384.31 65.8 391.819 65.8C395.915 65.8 399.883 65.416 403.723 64.648C407.648 63.88 411.531 62.6853 415.371 61.064V82.184C411.702 83.464 407.819 84.4453 403.723 85.128C399.712 85.896 395.147 86.28 390.027 86.28ZM424.385 85V2.56799H486.849V21H448.449V34.44H482.113V53.128H448.449V66.568H486.849V85H424.385Z"/>
</mask>
<path d="M15.024 85L14.8377 85.9825L14.8459 85.984L14.8541 85.9855L15.024 85ZM2.352 81.16H1.352V81.7987L1.93154 82.0673L2.352 81.16ZM2.352 61.32L2.77489 60.4138L1.352 59.7498V61.32H2.352ZM15.152 65.672L14.922 66.6452L15.152 65.672ZM37.936 66.312L38.2408 67.2644L38.252 67.2608L38.2631 67.257L37.936 66.312ZM39.344 57.096L38.6932 57.8553L38.7061 57.8663L38.7193 57.8769L39.344 57.096ZM33.584 54.28L33.2678 55.2287L33.277 55.2317L33.584 54.28ZM23.472 51.08L23.1646 52.0316L23.1719 52.0339L23.1793 52.0362L23.472 51.08ZM10.288 45.192L9.73838 46.0274L10.288 45.192ZM3.248 37.384L2.33419 37.7901L2.33885 37.8006L2.34375 37.811L3.248 37.384ZM9.776 7.688L10.3663 8.49517L10.3684 8.49365L9.776 7.688ZM49.456 2.43999L49.2973 3.42733L49.3 3.42776L49.456 2.43999ZM61.232 5H62.232V4.26606L61.5318 4.04601L61.232 5ZM61.232 24.968L60.8572 25.8951L62.232 26.4509V24.968H61.232ZM49.712 21.512L49.5291 22.4951L49.712 21.512ZM29.744 21.384L29.5237 20.4086L29.744 21.384ZM29.104 30.728L28.6849 31.636L28.7056 31.6455L28.7267 31.6541L29.104 30.728ZM41.264 34.44L41.5209 33.4736L41.5199 33.4733L41.264 34.44ZM56.624 40.968L56.0335 41.7751L56.0428 41.7817L56.624 40.968ZM63.92 49.928L62.9836 50.2791L62.9867 50.287L63.92 49.928ZM57.136 79.496L57.7508 80.2848L57.7579 80.2791L57.136 79.496ZM30.768 85.28C25.2725 85.28 20.0817 84.8573 15.1939 84.0145L14.8541 85.9855C19.865 86.8494 25.1702 87.28 30.768 87.28V85.28ZM15.2103 84.0175C10.3187 83.0898 6.17775 81.8307 2.77246 80.2527L1.93154 82.0673C5.52359 83.7319 9.83066 85.0329 14.8377 85.9825L15.2103 84.0175ZM3.352 81.16V61.32H1.352V81.16H3.352ZM1.92911 62.2262C5.83874 64.0507 10.1712 65.5223 14.922 66.6452L15.382 64.6988C10.7462 63.6031 6.54526 62.1733 2.77489 60.4138L1.92911 62.2262ZM14.922 66.6452C19.6778 67.7693 24.1503 68.336 28.336 68.336V66.336C24.3297 66.336 20.0129 65.7934 15.382 64.6988L14.922 66.6452ZM28.336 68.336C32.6304 68.336 35.9562 67.9955 38.2408 67.2644L37.6312 65.3596C35.6491 65.9939 32.575 66.336 28.336 66.336V68.336ZM38.2631 67.257C39.5416 66.8144 40.568 66.0867 41.2641 65.0427C41.9552 64.006 42.264 62.7425 42.264 61.32H40.264C40.264 62.4575 40.0182 63.306 39.6 63.9333C39.1866 64.5533 38.549 65.0416 37.6089 65.367L38.2631 67.257ZM42.264 61.32C42.264 59.2566 41.5101 57.5482 39.9687 56.3151L38.7193 57.8769C39.7379 58.6918 40.264 59.7994 40.264 61.32H42.264ZM39.9948 56.3367C38.65 55.184 36.5807 54.1959 33.891 53.3283L33.277 55.2317C35.878 56.0707 37.6487 56.96 38.6932 57.8553L39.9948 56.3367ZM33.9002 53.3313C31.3292 52.4743 27.9498 51.4049 23.7647 50.1238L23.1793 52.0362C27.3569 53.3151 30.7188 54.379 33.2678 55.2287L33.9002 53.3313ZM23.7794 50.1284C18.2801 48.3517 13.9777 46.4224 10.8376 44.3566L9.73838 46.0274C13.0837 48.2283 17.5706 50.2243 23.1646 52.0316L23.7794 50.1284ZM10.8376 44.3566C7.7261 42.3095 5.51378 39.8402 4.15225 36.957L2.34375 37.811C3.88355 41.0718 6.36457 43.8078 9.73838 46.0274L10.8376 44.3566ZM4.16181 36.9779C2.86838 34.0676 2.2 30.46 2.2 26.12H0.2C0.2 30.6546 0.896951 34.5564 2.33419 37.7901L4.16181 36.9779ZM2.2 26.12C2.2 18.2795 4.94633 12.459 10.3663 8.49517L9.18568 6.88083C3.171 11.2796 0.2 17.7472 0.2 26.12H2.2ZM10.3684 8.49365C15.9259 4.40725 24.2537 2.28799 35.504 2.28799V0.287994C24.0556 0.287994 15.2314 2.43541 9.18361 6.88235L10.3684 8.49365ZM35.504 2.28799C39.97 2.28799 44.5675 2.66717 49.2973 3.42732L49.6147 1.45267C44.7872 0.676815 40.0834 0.287994 35.504 0.287994V2.28799ZM49.3 3.42776C54.1395 4.19189 58.0113 5.03599 60.9322 5.95399L61.5318 4.04601C58.4794 3.08667 54.5005 2.2241 49.612 1.45223L49.3 3.42776ZM60.232 5V24.968H62.232V5H60.232ZM61.6068 24.0409C57.5437 22.3984 53.6393 21.2255 49.8949 20.5289L49.5291 22.4951C53.1234 23.1638 56.8989 24.295 60.8572 25.8951L61.6068 24.0409ZM49.8949 20.5289C46.1741 19.8366 42.6564 19.488 39.344 19.488V21.488C42.5169 21.488 45.9113 21.822 49.5291 22.4951L49.8949 20.5289ZM39.344 19.488C35.5413 19.488 32.263 19.79 29.5237 20.4086L29.9643 22.3594C32.5157 21.7833 35.6374 21.488 39.344 21.488V19.488ZM29.5237 20.4086C28.0619 20.7386 26.852 21.3539 26.0102 22.3315C25.1601 23.3187 24.776 24.5702 24.776 25.992H26.776C26.776 24.9391 27.0532 24.1853 27.5258 23.6365C28.0067 23.0781 28.7808 22.6267 29.9643 22.3594L29.5237 20.4086ZM24.776 25.992C24.776 27.2417 25.1044 28.3755 25.7898 29.3509C26.4695 30.3182 27.4575 31.0695 28.6849 31.636L29.5231 29.82C28.5318 29.3625 27.8559 28.8125 27.4262 28.201C27.0023 27.5978 26.776 26.8756 26.776 25.992H24.776ZM28.7267 31.6541C31.0963 32.6195 35.2055 33.8707 41.0081 35.4067L41.5199 33.4733C35.7171 31.9373 31.7197 30.7138 29.4813 29.8019L28.7267 31.6541ZM41.0071 35.4064C47.6925 37.1836 52.6776 39.3195 56.0335 41.775L57.2145 40.161C53.5731 37.4965 48.3182 35.2804 41.5209 33.4736L41.0071 35.4064ZM56.0428 41.7817C59.4992 44.2506 61.7868 47.0876 62.9837 50.2791L64.8563 49.5769C63.4932 45.9418 60.9168 42.8054 57.2052 40.1543L56.0428 41.7817ZM62.9867 50.287C64.2149 53.4803 64.84 57.1525 64.84 61.32H66.84C66.84 56.9541 66.1851 53.0317 64.8533 49.569L62.9867 50.287ZM64.84 61.32C64.84 68.5291 62.0742 74.2975 56.5141 78.7129L57.7579 80.2791C63.8032 75.4785 66.84 69.1296 66.84 61.32H64.84ZM56.5213 78.7073C50.9721 83.0323 42.4457 85.28 30.768 85.28V87.28C42.6423 87.28 51.6946 85.005 57.7507 80.2847L56.5213 78.7073ZM74.76 85H73.76V86H74.76V85ZM74.76 2.56799V1.56799H73.76V2.56799H74.76ZM137.224 2.56799H138.224V1.56799H137.224V2.56799ZM137.224 21V22H138.224V21H137.224ZM98.824 21V20H97.824V21H98.824ZM98.824 34.44H97.824V35.44H98.824V34.44ZM132.488 34.44H133.488V33.44H132.488V34.44ZM132.488 53.128V54.128H133.488V53.128H132.488ZM98.824 53.128V52.128H97.824V53.128H98.824ZM98.824 66.568H97.824V67.568H98.824V66.568ZM137.224 66.568H138.224V65.568H137.224V66.568ZM137.224 85V86H138.224V85H137.224ZM75.76 85V2.56799H73.76V85H75.76ZM74.76 3.56799H137.224V1.56799H74.76V3.56799ZM136.224 2.56799V21H138.224V2.56799H136.224ZM137.224 20H98.824V22H137.224V20ZM97.824 21V34.44H99.824V21H97.824ZM98.824 35.44H132.488V33.44H98.824V35.44ZM131.488 34.44V53.128H133.488V34.44H131.488ZM132.488 52.128H98.824V54.128H132.488V52.128ZM97.824 53.128V66.568H99.824V53.128H97.824ZM98.824 67.568H137.224V65.568H98.824V67.568ZM136.224 66.568V85H138.224V66.568H136.224ZM137.224 84H74.76V86H137.224V84ZM144.885 85H143.885V86H144.885V85ZM144.885 2.56799V1.56799H143.885V2.56799H144.885ZM204.277 6.28L203.775 7.14506L203.783 7.14929L204.277 6.28ZM214.005 16.648L213.104 17.0813L213.107 17.0882L214.005 16.648ZM212.981 46.6L212.146 46.0491L212.144 46.0532L212.981 46.6ZM201.973 56.2L201.539 55.299L200.125 55.98L201.34 56.974L201.973 56.2ZM204.405 59.016L203.553 59.5401L203.563 59.5556L203.573 59.5707L204.405 59.016ZM206.709 63.368L207.625 62.9669L207.619 62.9542L206.709 63.368ZM216.181 85V86H217.711L217.097 84.5989L216.181 85ZM191.093 85L190.177 85.4017L190.44 86H191.093V85ZM182.389 65.16L183.305 64.7582L183.303 64.7539L182.389 65.16ZM179.829 61.96L179.241 62.7687L179.282 62.7984L179.325 62.8238L179.829 61.96ZM168.949 60.936V59.936H167.949V60.936H168.949ZM168.949 85V86H169.949V85H168.949ZM168.949 42.504H167.949V43.504H168.949V42.504ZM189.685 39.816L190.375 40.5394L190.376 40.5386L189.685 39.816ZM168.949 21V20H167.949V21H168.949ZM145.885 85V2.56799H143.885V85H145.885ZM144.885 3.56799H187.765V1.56799H144.885V3.56799ZM187.765 3.56799C194.392 3.56799 199.707 4.78539 203.775 7.14503L204.779 5.41497C200.314 2.82527 194.621 1.56799 187.765 1.56799V3.56799ZM203.783 7.14929C207.961 9.52521 211.06 12.8306 213.104 17.0813L214.906 16.2147C212.683 11.5908 209.297 7.98412 204.771 5.41071L203.783 7.14929ZM213.107 17.0882C215.161 21.2787 216.205 26.2002 216.205 31.88H218.205C218.205 25.9545 217.115 20.7213 214.903 16.2078L213.107 17.0882ZM216.205 31.88C216.205 37.2482 214.845 41.9599 212.146 46.0492L213.816 47.1508C216.749 42.7068 218.205 37.6051 218.205 31.88H216.205ZM212.144 46.0532C209.515 50.0781 205.987 53.1574 201.539 55.299L202.407 57.101C207.175 54.8053 210.985 51.4846 213.818 47.1468L212.144 46.0532ZM201.34 56.974C202.186 57.6664 202.925 58.5186 203.553 59.5401L205.257 58.4919C204.52 57.2947 203.637 56.2696 202.606 55.426L201.34 56.974ZM203.573 59.5707C204.213 60.5301 204.955 61.9255 205.799 63.7818L207.619 62.9542C206.756 61.0559 205.963 59.5499 205.237 58.4613L203.573 59.5707ZM205.793 63.7691L215.265 85.4011L217.097 84.5989L207.625 62.9669L205.793 63.7691ZM216.181 84H191.093V86H216.181V84ZM192.009 84.5983L183.305 64.7583L181.473 65.5617L190.177 85.4017L192.009 84.5983ZM183.303 64.7539C182.569 63.1036 181.6 61.8352 180.333 61.0962L179.325 62.8238C180.106 63.2794 180.843 64.1444 181.475 65.5661L183.303 64.7539ZM180.417 61.1513C179.237 60.2932 177.629 59.936 175.733 59.936V61.936C177.421 61.936 178.543 62.2615 179.241 62.7687L180.417 61.1513ZM175.733 59.936H168.949V61.936H175.733V59.936ZM167.949 60.936V85H169.949V60.936H167.949ZM168.949 84H144.885V86H168.949V84ZM168.949 43.504H181.621V41.504H168.949V43.504ZM181.621 43.504C185.285 43.504 188.255 42.5634 190.375 40.5394L188.995 39.0926C187.36 40.6526 184.954 41.504 181.621 41.504V43.504ZM190.376 40.5386C192.584 38.4268 193.629 35.4918 193.629 31.88H191.629C191.629 35.0948 190.711 37.4506 188.994 39.0934L190.376 40.5386ZM193.629 31.88C193.629 28.1138 192.744 25.1031 190.797 23.0346C188.84 20.9548 185.973 20 182.389 20V22C185.632 22 187.885 22.8586 189.341 24.4054C190.807 25.9636 191.629 28.3929 191.629 31.88H193.629ZM182.389 20H168.949V22H182.389V20ZM167.949 21V42.504H169.949V21H167.949ZM246.816 85L245.882 85.3581L246.129 86H246.816V85ZM215.2 2.56799V1.56799H213.745L214.266 2.9261L215.2 2.56799ZM240.288 2.56799L241.231 2.23587L240.996 1.56799H240.288V2.56799ZM259.488 57.096L258.545 57.4281L259.488 60.1069L260.431 57.4281L259.488 57.096ZM278.688 2.56799V1.56799H277.98L277.745 2.23587L278.688 2.56799ZM303.904 2.56799L304.838 2.9261L305.359 1.56799H303.904V2.56799ZM272.288 85V86H272.975L273.222 85.3581L272.288 85ZM247.75 84.6419L216.134 2.20989L214.266 2.9261L245.882 85.3581L247.75 84.6419ZM215.2 3.56799H240.288V1.56799H215.2V3.56799ZM239.345 2.90012L258.545 57.4281L260.431 56.7639L241.231 2.23587L239.345 2.90012ZM260.431 57.4281L279.631 2.90012L277.745 2.23587L258.545 56.7639L260.431 57.4281ZM278.688 3.56799H303.904V1.56799H278.688V3.56799ZM302.97 2.20989L271.354 84.6419L273.222 85.3581L304.838 2.9261L302.97 2.20989ZM272.288 84H246.816V86H272.288V84ZM311.01 85H310.01V86H311.01V85ZM311.01 2.56799V1.56799H310.01V2.56799H311.01ZM335.074 2.56799H336.074V1.56799H335.074V2.56799ZM335.074 85V86H336.074V85H335.074ZM312.01 85V2.56799H310.01V85H312.01ZM311.01 3.56799H335.074V1.56799H311.01V3.56799ZM334.074 2.56799V85H336.074V2.56799H334.074ZM335.074 84H311.01V86H335.074V84ZM355.851 75.272L356.534 74.5415L355.851 75.272ZM355.595 12.424L356.286 13.147L356.29 13.143L355.595 12.424ZM415.115 5.64H416.115V4.94511L415.464 4.70278L415.115 5.64ZM415.115 26.632L414.711 27.5467L416.115 28.1671V26.632H415.115ZM374.283 27.144L374.965 27.8757L374.973 27.8674L374.283 27.144ZM374.539 60.808L373.883 61.5626L373.892 61.5702L373.9 61.5776L374.539 60.808ZM403.723 64.648L403.531 63.6666L403.527 63.6674L403.723 64.648ZM415.371 61.064H416.371V59.5563L414.982 60.1427L415.371 61.064ZM415.371 82.184L415.7 83.1282L416.371 82.8943V82.184H415.371ZM403.723 85.128L403.559 84.1416L403.547 84.1436L403.535 84.1458L403.723 85.128ZM390.027 85.28C375.248 85.28 364.138 81.6493 356.534 74.5415L355.168 76.0025C363.266 83.5721 374.94 87.28 390.027 87.28V85.28ZM356.534 74.5415C348.933 67.4366 345.075 57.3614 345.075 44.168H343.075C343.075 57.7693 347.067 68.4301 355.168 76.0025L356.534 74.5415ZM345.075 44.168C345.075 30.5307 348.858 20.2446 356.286 13.147L354.904 11.701C346.972 19.2807 343.075 30.1573 343.075 44.168H345.075ZM356.29 13.143C363.717 5.96337 374.859 2.28799 389.899 2.28799V0.287994C374.56 0.287994 362.833 4.03662 354.9 11.705L356.29 13.143ZM389.899 2.28799C394.971 2.28799 399.472 2.66856 403.407 3.42215L403.783 1.45784C399.697 0.67543 395.067 0.287994 389.899 0.287994V2.28799ZM403.407 3.42215C407.365 4.18012 411.151 5.23213 414.766 6.57722L415.464 4.70278C411.74 3.3172 407.846 2.23587 403.783 1.45784L403.407 3.42215ZM414.115 5.64V26.632H416.115V5.64H414.115ZM415.519 25.7173C408.048 22.416 400.059 20.768 391.563 20.768V22.768C399.793 22.768 407.505 24.3627 414.711 27.5467L415.519 25.7173ZM391.563 20.768C383.666 20.768 377.608 22.5882 373.593 26.4206L374.973 27.8674C378.468 24.5318 383.93 22.768 391.563 22.768V20.768ZM373.601 26.4124C369.557 30.1807 367.651 36.1856 367.651 44.168H369.651C369.651 36.4491 371.499 31.1046 374.965 27.8756L373.601 26.4124ZM367.651 44.168C367.651 51.9972 369.652 57.8835 373.883 61.5626L375.195 60.0534C371.576 56.9059 369.651 51.6988 369.651 44.168H367.651ZM373.9 61.5776C378.155 65.108 384.177 66.8 391.819 66.8V64.8C384.442 64.8 378.944 63.1639 375.178 60.0384L373.9 61.5776ZM391.819 66.8C395.978 66.8 400.012 66.4101 403.919 65.6286L403.527 63.6674C399.754 64.4219 395.852 64.8 391.819 64.8V66.8ZM403.915 65.6294C407.911 64.8476 411.859 63.6322 415.76 61.9853L414.982 60.1427C411.203 61.7384 407.386 62.9124 403.531 63.6666L403.915 65.6294ZM414.371 61.064V82.184H416.371V61.064H414.371ZM415.042 81.2398C411.43 82.4998 407.602 83.4677 403.559 84.1416L403.887 86.1144C408.036 85.423 411.974 84.4282 415.7 83.1282L415.042 81.2398ZM403.535 84.1458C399.6 84.8994 395.099 85.28 390.027 85.28V87.28C395.195 87.28 399.825 86.8926 403.911 86.1102L403.535 84.1458ZM424.385 85H423.385V86H424.385V85ZM424.385 2.56799V1.56799H423.385V2.56799H424.385ZM486.849 2.56799H487.849V1.56799H486.849V2.56799ZM486.849 21V22H487.849V21H486.849ZM448.449 21V20H447.449V21H448.449ZM448.449 34.44H447.449V35.44H448.449V34.44ZM482.113 34.44H483.113V33.44H482.113V34.44ZM482.113 53.128V54.128H483.113V53.128H482.113ZM448.449 53.128V52.128H447.449V53.128H448.449ZM448.449 66.568H447.449V67.568H448.449V66.568ZM486.849 66.568H487.849V65.568H486.849V66.568ZM486.849 85V86H487.849V85H486.849ZM425.385 85V2.56799H423.385V85H425.385ZM424.385 3.56799H486.849V1.56799H424.385V3.56799ZM485.849 2.56799V21H487.849V2.56799H485.849ZM486.849 20H448.449V22H486.849V20ZM447.449 21V34.44H449.449V21H447.449ZM448.449 35.44H482.113V33.44H448.449V35.44ZM481.113 34.44V53.128H483.113V34.44H481.113ZM482.113 52.128H448.449V54.128H482.113V52.128ZM447.449 53.128V66.568H449.449V53.128H447.449ZM448.449 67.568H486.849V65.568H448.449V67.568ZM485.849 66.568V85H487.849V66.568H485.849ZM486.849 84H424.385V86H486.849V84Z" fill="#4282B8" mask="url(#path-1-outside-1_47_212)"/>
</svg>
