<svg width="334" height="88" viewBox="0 0 334 88" fill="none" xmlns="http://www.w3.org/2000/svg">
<mask id="path-1-outside-1_58_388" maskUnits="userSpaceOnUse" x="0" y="0" width="334" height="88" fill="black">
<rect fill="white" width="334" height="88"/>
<path d="M1.76 85V2.56799H22.24L53.344 46.216V2.56799H77.408V85H56.8L25.824 41.48V85H1.76ZM88.885 85V2.56799H151.349V21H112.949V34.44H146.613V53.128H112.949V66.568H151.349V85H88.885ZM175.65 85L156.45 2.56799H180.002L189.346 46.216L198.434 14.984V2.56799H218.146L230.69 46.344L240.546 2.56799H264.098L245.026 85H223.266L210.85 42.376L197.41 85H175.65ZM297.518 86.28C291.971 86.28 286.723 85.8533 281.774 85C276.825 84.0613 272.601 82.7813 269.102 81.16V61.32C272.942 63.112 277.209 64.5627 281.902 65.672C286.595 66.7813 290.99 67.336 295.086 67.336C299.353 67.336 302.553 66.9947 304.686 66.312C306.905 65.544 308.014 63.88 308.014 61.32C308.014 59.528 307.374 58.12 306.094 57.096C304.899 56.072 302.979 55.1333 300.334 54.28C297.774 53.4267 294.403 52.36 290.222 51.08C284.675 49.288 280.281 47.3253 277.038 45.192C273.795 43.0587 271.449 40.456 269.998 37.384C268.633 34.312 267.95 30.5573 267.95 26.12C267.95 18.0133 270.809 11.8693 276.526 7.688C282.329 3.42133 290.905 1.28799 302.254 1.28799C306.777 1.28799 311.427 1.67199 316.206 2.43999C321.07 3.208 324.995 4.06133 327.982 5V24.968C323.971 23.3467 320.131 22.1947 316.462 21.512C312.793 20.8293 309.337 20.488 306.094 20.488C302.339 20.488 299.139 20.7867 296.494 21.384C293.849 21.9813 292.526 23.5173 292.526 25.992C292.526 28.1253 293.635 29.704 295.854 30.728C298.158 31.6667 302.211 32.904 308.014 34.44C314.755 36.232 319.875 38.408 323.374 40.968C326.958 43.528 329.39 46.5147 330.67 49.928C331.95 53.256 332.59 57.0533 332.59 61.32C332.59 68.8293 329.689 74.888 323.886 79.496C318.083 84.0187 309.294 86.28 297.518 86.28Z"/>
</mask>
<path d="M1.76 85H0.76V86H1.76V85ZM1.76 2.56799V1.56799H0.76V2.56799H1.76ZM22.24 2.56799L23.0544 1.98766L22.7553 1.56799H22.24V2.56799ZM53.344 46.216L52.5296 46.7963L54.344 49.3424V46.216H53.344ZM53.344 2.56799V1.56799H52.344V2.56799H53.344ZM77.408 2.56799H78.408V1.56799H77.408V2.56799ZM77.408 85V86H78.408V85H77.408ZM56.8 85L55.9853 85.5799L56.2843 86H56.8V85ZM25.824 41.48L26.6387 40.9001L24.824 38.3505V41.48H25.824ZM25.824 85V86H26.824V85H25.824ZM2.76 85V2.56799H0.76V85H2.76ZM1.76 3.56799H22.24V1.56799H1.76V3.56799ZM21.4256 3.14833L52.5296 46.7963L54.1584 45.6357L23.0544 1.98766L21.4256 3.14833ZM54.344 46.216V2.56799H52.344V46.216H54.344ZM53.344 3.56799H77.408V1.56799H53.344V3.56799ZM76.408 2.56799V85H78.408V2.56799H76.408ZM77.408 84H56.8V86H77.408V84ZM57.6147 84.4201L26.6387 40.9001L25.0093 42.0599L55.9853 85.5799L57.6147 84.4201ZM24.824 41.48V85H26.824V41.48H24.824ZM25.824 84H1.76V86H25.824V84ZM88.885 85H87.885V86H88.885V85ZM88.885 2.56799V1.56799H87.885V2.56799H88.885ZM151.349 2.56799H152.349V1.56799H151.349V2.56799ZM151.349 21V22H152.349V21H151.349ZM112.949 21V20H111.949V21H112.949ZM112.949 34.44H111.949V35.44H112.949V34.44ZM146.613 34.44H147.613V33.44H146.613V34.44ZM146.613 53.128V54.128H147.613V53.128H146.613ZM112.949 53.128V52.128H111.949V53.128H112.949ZM112.949 66.568H111.949V67.568H112.949V66.568ZM151.349 66.568H152.349V65.568H151.349V66.568ZM151.349 85V86H152.349V85H151.349ZM89.885 85V2.56799H87.885V85H89.885ZM88.885 3.56799H151.349V1.56799H88.885V3.56799ZM150.349 2.56799V21H152.349V2.56799H150.349ZM151.349 20H112.949V22H151.349V20ZM111.949 21V34.44H113.949V21H111.949ZM112.949 35.44H146.613V33.44H112.949V35.44ZM145.613 34.44V53.128H147.613V34.44H145.613ZM146.613 52.128H112.949V54.128H146.613V52.128ZM111.949 53.128V66.568H113.949V53.128H111.949ZM112.949 67.568H151.349V65.568H112.949V67.568ZM150.349 66.568V85H152.349V66.568H150.349ZM151.349 84H88.885V86H151.349V84ZM175.65 85L174.676 85.2268L174.856 86H175.65V85ZM156.45 2.56799V1.56799H155.19L155.476 2.79484L156.45 2.56799ZM180.002 2.56799L180.98 2.35866L180.811 1.56799H180.002V2.56799ZM189.346 46.216L188.368 46.4253L190.306 46.4954L189.346 46.216ZM198.434 14.984L199.394 15.2634L199.434 15.1265V14.984H198.434ZM198.434 2.56799V1.56799H197.434V2.56799H198.434ZM218.146 2.56799L219.107 2.29253L218.9 1.56799H218.146V2.56799ZM230.69 46.344L229.729 46.6195L231.666 46.5636L230.69 46.344ZM240.546 2.56799V1.56799H239.746L239.57 2.34834L240.546 2.56799ZM264.098 2.56799L265.072 2.79341L265.356 1.56799H264.098V2.56799ZM245.026 85V86H245.821L246 85.2254L245.026 85ZM223.266 85L222.306 85.2797L222.516 86H223.266V85ZM210.85 42.376L211.81 42.0963L210.888 38.9304L209.896 42.0753L210.85 42.376ZM197.41 85V86H198.143L198.364 85.3007L197.41 85ZM176.624 84.7732L157.424 2.34115L155.476 2.79484L174.676 85.2268L176.624 84.7732ZM156.45 3.56799H180.002V1.56799H156.45V3.56799ZM179.024 2.77733L188.368 46.4253L190.324 46.0067L180.98 2.35866L179.024 2.77733ZM190.306 46.4954L199.394 15.2634L197.474 14.7046L188.386 45.9366L190.306 46.4954ZM199.434 14.984V2.56799H197.434V14.984H199.434ZM198.434 3.56799H218.146V1.56799H198.434V3.56799ZM217.185 2.84346L229.729 46.6195L231.651 46.0685L219.107 2.29253L217.185 2.84346ZM231.666 46.5636L241.522 2.78764L239.57 2.34834L229.714 46.1244L231.666 46.5636ZM240.546 3.56799H264.098V1.56799H240.546V3.56799ZM263.124 2.34258L244.052 84.7746L246 85.2254L265.072 2.79341L263.124 2.34258ZM245.026 84H223.266V86H245.026V84ZM224.226 84.7203L211.81 42.0963L209.89 42.6557L222.306 85.2797L224.226 84.7203ZM209.896 42.0753L196.456 84.6993L198.364 85.3007L211.804 42.6767L209.896 42.0753ZM197.41 84H175.65V86H197.41V84ZM281.774 85L281.588 85.9825L281.596 85.984L281.604 85.9855L281.774 85ZM269.102 81.16H268.102V81.7987L268.682 82.0673L269.102 81.16ZM269.102 61.32L269.525 60.4138L268.102 59.7498V61.32H269.102ZM281.902 65.672L281.672 66.6452L281.902 65.672ZM304.686 66.312L304.991 67.2644L305.002 67.2608L305.013 67.257L304.686 66.312ZM306.094 57.096L305.443 57.8553L305.456 57.8663L305.469 57.8769L306.094 57.096ZM300.334 54.28L300.018 55.2287L300.027 55.2317L300.334 54.28ZM290.222 51.08L289.915 52.0316L289.922 52.0339L289.929 52.0362L290.222 51.08ZM277.038 45.192L276.488 46.0274L277.038 45.192ZM269.998 37.384L269.084 37.7901L269.089 37.8006L269.094 37.811L269.998 37.384ZM276.526 7.688L277.116 8.49517L277.118 8.49365L276.526 7.688ZM316.206 2.43999L316.047 3.42733L316.05 3.42776L316.206 2.43999ZM327.982 5H328.982V4.26606L328.282 4.04601L327.982 5ZM327.982 24.968L327.607 25.8951L328.982 26.4509V24.968H327.982ZM316.462 21.512L316.279 22.4951L316.462 21.512ZM296.494 21.384L296.274 20.4086L296.494 21.384ZM295.854 30.728L295.435 31.636L295.456 31.6455L295.477 31.6541L295.854 30.728ZM308.014 34.44L308.271 33.4736L308.27 33.4733L308.014 34.44ZM323.374 40.968L322.783 41.7751L322.793 41.7817L323.374 40.968ZM330.67 49.928L329.734 50.2791L329.737 50.287L330.67 49.928ZM323.886 79.496L324.501 80.2848L324.508 80.2791L323.886 79.496ZM297.518 85.28C292.022 85.28 286.832 84.8573 281.944 84.0145L281.604 85.9855C286.615 86.8494 291.92 87.28 297.518 87.28V85.28ZM281.96 84.0175C277.069 83.0898 272.928 81.8307 269.522 80.2527L268.682 82.0673C272.274 83.7319 276.581 85.0329 281.588 85.9825L281.96 84.0175ZM270.102 81.16V61.32H268.102V81.16H270.102ZM268.679 62.2262C272.589 64.0507 276.921 65.5223 281.672 66.6452L282.132 64.6988C277.496 63.6031 273.295 62.1733 269.525 60.4138L268.679 62.2262ZM281.672 66.6452C286.428 67.7693 290.9 68.336 295.086 68.336V66.336C291.08 66.336 286.763 65.7934 282.132 64.6988L281.672 66.6452ZM295.086 68.336C299.38 68.336 302.706 67.9955 304.991 67.2644L304.381 65.3596C302.399 65.9939 299.325 66.336 295.086 66.336V68.336ZM305.013 67.257C306.292 66.8144 307.318 66.0867 308.014 65.0427C308.705 64.006 309.014 62.7425 309.014 61.32H307.014C307.014 62.4575 306.768 63.306 306.35 63.9333C305.937 64.5533 305.299 65.0416 304.359 65.367L305.013 67.257ZM309.014 61.32C309.014 59.2566 308.26 57.5482 306.719 56.3151L305.469 57.8769C306.488 58.6918 307.014 59.7994 307.014 61.32H309.014ZM306.745 56.3367C305.4 55.184 303.331 54.1959 300.641 53.3283L300.027 55.2317C302.628 56.0707 304.399 56.96 305.443 57.8553L306.745 56.3367ZM300.65 53.3313C298.079 52.4743 294.7 51.4049 290.515 50.1238L289.929 52.0362C294.107 53.3151 297.469 54.379 300.018 55.2287L300.65 53.3313ZM290.529 50.1284C285.03 48.3517 280.728 46.4224 277.588 44.3566L276.488 46.0274C279.834 48.2283 284.321 50.2243 289.915 52.0316L290.529 50.1284ZM277.588 44.3566C274.476 42.3095 272.264 39.8402 270.902 36.957L269.094 37.811C270.634 41.0718 273.115 43.8078 276.488 46.0274L277.588 44.3566ZM270.912 36.9779C269.618 34.0676 268.95 30.46 268.95 26.12H266.95C266.95 30.6546 267.647 34.5564 269.084 37.7901L270.912 36.9779ZM268.95 26.12C268.95 18.2795 271.696 12.459 277.116 8.49517L275.936 6.88083C269.921 11.2796 266.95 17.7472 266.95 26.12H268.95ZM277.118 8.49365C282.676 4.40725 291.004 2.28799 302.254 2.28799V0.287994C290.806 0.287994 281.981 2.43541 275.934 6.88235L277.118 8.49365ZM302.254 2.28799C306.72 2.28799 311.318 2.66717 316.047 3.42732L316.365 1.45267C311.537 0.676815 306.833 0.287994 302.254 0.287994V2.28799ZM316.05 3.42776C320.89 4.19189 324.761 5.03599 327.682 5.95399L328.282 4.04601C325.229 3.08667 321.25 2.2241 316.362 1.45223L316.05 3.42776ZM326.982 5V24.968H328.982V5H326.982ZM328.357 24.0409C324.294 22.3984 320.389 21.2255 316.645 20.5289L316.279 22.4951C319.873 23.1638 323.649 24.295 327.607 25.8951L328.357 24.0409ZM316.645 20.5289C312.924 19.8366 309.406 19.488 306.094 19.488V21.488C309.267 21.488 312.661 21.822 316.279 22.4951L316.645 20.5289ZM306.094 19.488C302.291 19.488 299.013 19.79 296.274 20.4086L296.714 22.3594C299.266 21.7833 302.387 21.488 306.094 21.488V19.488ZM296.274 20.4086C294.812 20.7386 293.602 21.3539 292.76 22.3315C291.91 23.3187 291.526 24.5702 291.526 25.992H293.526C293.526 24.9391 293.803 24.1853 294.276 23.6365C294.757 23.0781 295.531 22.6267 296.714 22.3594L296.274 20.4086ZM291.526 25.992C291.526 27.2417 291.854 28.3755 292.54 29.3509C293.219 30.3182 294.208 31.0695 295.435 31.636L296.273 29.82C295.282 29.3625 294.606 28.8125 294.176 28.201C293.752 27.5978 293.526 26.8756 293.526 25.992H291.526ZM295.477 31.6541C297.846 32.6195 301.956 33.8707 307.758 35.4067L308.27 33.4733C302.467 31.9373 298.47 30.7138 296.231 29.8019L295.477 31.6541ZM307.757 35.4064C314.443 37.1836 319.428 39.3195 322.784 41.775L323.965 40.161C320.323 37.4965 315.068 35.2804 308.271 33.4736L307.757 35.4064ZM322.793 41.7817C326.249 44.2506 328.537 47.0876 329.734 50.2791L331.606 49.5769C330.243 45.9418 327.667 42.8054 323.955 40.1543L322.793 41.7817ZM329.737 50.287C330.965 53.4803 331.59 57.1525 331.59 61.32H333.59C333.59 56.9541 332.935 53.0317 331.603 49.569L329.737 50.287ZM331.59 61.32C331.59 68.5291 328.824 74.2975 323.264 78.7129L324.508 80.2791C330.553 75.4785 333.59 69.1296 333.59 61.32H331.59ZM323.271 78.7073C317.722 83.0323 309.196 85.28 297.518 85.28V87.28C309.392 87.28 318.445 85.005 324.501 80.2847L323.271 78.7073Z" fill="#4282B8" mask="url(#path-1-outside-1_58_388)"/>
</svg>
