<svg width="428" height="88" viewBox="0 0 428 88" fill="none" xmlns="http://www.w3.org/2000/svg">
<mask id="path-1-outside-1_40_2973" maskUnits="userSpaceOnUse" x="0" y="0" width="428" height="88" fill="black">
<rect fill="white" width="428" height="88"/>
<path d="M2.2 85L33.816 2.56799H59.288L90.904 85H65.816L58.904 67.464H34.072L27.288 85H2.2ZM37.272 50.184H55.704L46.488 25.992L37.272 50.184ZM99.885 85V2.56799H145.197C153.56 2.56799 159.917 4.53066 164.269 8.45599C168.621 12.3813 170.797 18.0133 170.797 25.352C170.797 29.6187 169.986 33.2027 168.365 36.104C166.829 39.0053 164.781 41.3093 162.221 43.016C165.72 44.3813 168.493 46.3867 170.541 49.032C172.674 51.592 173.741 55.432 173.741 60.552C173.741 68.3173 171.352 74.3333 166.573 78.6C161.794 82.8667 155.01 85 146.221 85H99.885ZM123.053 35.464H138.669C144.557 35.464 147.501 32.8187 147.501 27.528C147.501 24.8827 146.776 22.8773 145.325 21.512C143.96 20.1467 141.528 19.464 138.029 19.464H123.053V35.464ZM123.053 68.232H139.693C142.936 68.232 145.325 67.5493 146.861 66.184C148.397 64.8187 149.165 62.5573 149.165 59.4C149.165 56.7547 148.397 54.7493 146.861 53.384C145.325 52.0187 142.765 51.336 139.181 51.336H123.053V68.232ZM222.312 86.28C208.659 86.28 198.205 82.952 190.952 76.296C183.784 69.64 180.2 58.888 180.2 44.04C180.2 33.8 181.821 25.5653 185.064 19.336C188.307 13.0213 193.043 8.456 199.272 5.64C205.587 2.73866 213.267 1.28799 222.312 1.28799C231.357 1.28799 238.995 2.73866 245.224 5.64C251.539 8.456 256.317 13.0213 259.56 19.336C262.803 25.5653 264.424 33.8 264.424 44.04C264.424 58.888 260.797 69.64 253.544 76.296C246.291 82.952 235.88 86.28 222.312 86.28ZM222.312 65.8C228.456 65.8 232.893 64.0933 235.624 60.68C238.44 57.1813 239.848 51.6347 239.848 44.04C239.848 35.9333 238.44 30.216 235.624 26.888C232.893 23.4747 228.456 21.768 222.312 21.768C216.168 21.768 211.688 23.4747 208.872 26.888C206.141 30.216 204.776 35.9333 204.776 44.04C204.776 51.6347 206.141 57.1813 208.872 60.68C211.688 64.0933 216.168 65.8 222.312 65.8ZM311.785 86.28C304.105 86.28 297.321 85.0427 291.433 82.568C285.63 80.008 281.065 76.296 277.737 71.432C274.409 66.4827 272.745 60.424 272.745 53.256V2.56799H296.809V50.696C296.809 60.7653 301.801 65.8 311.785 65.8C316.564 65.8 320.233 64.5627 322.793 62.088C325.353 59.6133 326.633 55.816 326.633 50.696V2.56799H350.697V53.256C350.697 60.424 349.033 66.4827 345.705 71.432C342.462 76.296 337.897 80.008 332.009 82.568C326.206 85.0427 319.465 86.28 311.785 86.28ZM379.683 85V20.488H356.515V2.56799H426.915V20.488H403.747V85H379.683Z"/>
</mask>
<path d="M2.2 85L1.26632 84.6419L0.745431 86H2.2V85ZM33.816 2.56799V1.56799H33.1285L32.8823 2.20989L33.816 2.56799ZM59.288 2.56799L60.2217 2.20989L59.9755 1.56799H59.288V2.56799ZM90.904 85V86H92.3586L91.8377 84.6419L90.904 85ZM65.816 85L64.8857 85.3667L65.1353 86H65.816V85ZM58.904 67.464L59.8343 67.0973L59.5847 66.464H58.904V67.464ZM34.072 67.464V66.464H33.3866L33.1394 67.1032L34.072 67.464ZM27.288 85V86H27.9734L28.2206 85.3608L27.288 85ZM37.272 50.184L36.3375 49.828L35.8209 51.184H37.272V50.184ZM55.704 50.184V51.184H57.1551L56.6385 49.828L55.704 50.184ZM46.488 25.992L47.4225 25.636L46.488 23.183L45.5535 25.636L46.488 25.992ZM3.13368 85.3581L34.7497 2.9261L32.8823 2.20989L1.26632 84.6419L3.13368 85.3581ZM33.816 3.56799H59.288V1.56799H33.816V3.56799ZM58.3543 2.9261L89.9703 85.3581L91.8377 84.6419L60.2217 2.20989L58.3543 2.9261ZM90.904 84H65.816V86H90.904V84ZM66.7463 84.6333L59.8343 67.0973L57.9737 67.8307L64.8857 85.3667L66.7463 84.6333ZM58.904 66.464H34.072V68.464H58.904V66.464ZM33.1394 67.1032L26.3554 84.6392L28.2206 85.3608L35.0046 67.8248L33.1394 67.1032ZM27.288 84H2.2V86H27.288V84ZM37.272 51.184H55.704V49.184H37.272V51.184ZM56.6385 49.828L47.4225 25.636L45.5535 26.348L54.7695 50.54L56.6385 49.828ZM45.5535 25.636L36.3375 49.828L38.2065 50.54L47.4225 26.348L45.5535 25.636ZM99.885 85H98.885V86H99.885V85ZM99.885 2.56799V1.56799H98.885V2.56799H99.885ZM164.269 8.45599L164.939 7.71342L164.269 8.45599ZM168.365 36.104L167.492 35.6162L167.487 35.6261L167.481 35.6361L168.365 36.104ZM162.221 43.016L161.666 42.1839L160.068 43.2493L161.857 43.9476L162.221 43.016ZM170.541 49.032L169.75 49.6442L169.761 49.6584L169.773 49.6722L170.541 49.032ZM123.053 35.464H122.053V36.464H123.053V35.464ZM145.325 21.512L144.618 22.2191L144.629 22.2298L144.64 22.2402L145.325 21.512ZM123.053 19.464V18.464H122.053V19.464H123.053ZM123.053 68.232H122.053V69.232H123.053V68.232ZM146.861 66.184L147.525 66.9314H147.525L146.861 66.184ZM146.861 53.384L147.525 52.6366H147.525L146.861 53.384ZM123.053 51.336V50.336H122.053V51.336H123.053ZM100.885 85V2.56799H98.885V85H100.885ZM99.885 3.56799H145.197V1.56799H99.885V3.56799ZM145.197 3.56799C153.417 3.56799 159.496 5.49781 163.599 9.19856L164.939 7.71342C160.338 3.56351 153.702 1.56799 145.197 1.56799V3.56799ZM163.599 9.19856C167.69 12.8884 169.797 18.2198 169.797 25.352H171.797C171.797 17.8069 169.552 11.8743 164.939 7.71342L163.599 9.19856ZM169.797 25.352C169.797 29.4952 169.01 32.9004 167.492 35.6162L169.238 36.5918C170.963 33.5049 171.797 29.7421 171.797 25.352H169.797ZM167.481 35.6361C166.018 38.4007 164.079 40.5756 161.666 42.1839L162.776 43.8481C165.483 42.0431 167.64 39.6099 169.249 36.5719L167.481 35.6361ZM161.857 43.9476C165.209 45.2553 167.826 47.159 169.75 49.6442L171.332 48.4198C169.16 45.6143 166.231 43.5073 162.585 42.0844L161.857 43.9476ZM169.773 49.6722C171.694 51.9781 172.741 55.5462 172.741 60.552H174.741C174.741 55.3178 173.654 51.2059 171.309 48.3918L169.773 49.6722ZM172.741 60.552C172.741 68.0981 170.429 73.8169 165.907 77.8541L167.239 79.3459C172.275 74.8498 174.741 68.5365 174.741 60.552H172.741ZM165.907 77.8541C161.37 81.9048 154.857 84 146.221 84V86C155.164 86 162.219 83.8285 167.239 79.3459L165.907 77.8541ZM146.221 84H99.885V86H146.221V84ZM123.053 36.464H138.669V34.464H123.053V36.464ZM138.669 36.464C141.742 36.464 144.234 35.7759 145.961 34.2238C147.709 32.6534 148.501 30.3568 148.501 27.528H146.501C146.501 29.9899 145.821 31.6612 144.625 32.7362C143.408 33.8294 141.484 34.464 138.669 34.464V36.464ZM148.501 27.528C148.501 24.7014 147.722 22.3943 146.01 20.7838L144.64 22.2402C145.83 23.3603 146.501 25.064 146.501 27.528H148.501ZM146.032 20.8049C144.375 19.1483 141.597 18.464 138.029 18.464V20.464C141.458 20.464 143.544 21.1451 144.618 22.2191L146.032 20.8049ZM138.029 18.464H123.053V20.464H138.029V18.464ZM122.053 19.464V35.464H124.053V19.464H122.053ZM123.053 69.232H139.693V67.232H123.053V69.232ZM139.693 69.232C143.046 69.232 145.726 68.5309 147.525 66.9314L146.197 65.4366C144.924 66.5677 142.825 67.232 139.693 67.232V69.232ZM147.525 66.9314C149.367 65.2942 150.165 62.6902 150.165 59.4H148.165C148.165 62.4244 147.427 64.3431 146.197 65.4366L147.525 66.9314ZM150.165 59.4C150.165 56.5565 149.333 54.2429 147.525 52.6366L146.197 54.1314C147.462 55.2557 148.165 56.9529 148.165 59.4H150.165ZM147.525 52.6366C145.712 51.0245 142.844 50.336 139.181 50.336V52.336C142.686 52.336 144.938 53.0128 146.197 54.1314L147.525 52.6366ZM139.181 50.336H123.053V52.336H139.181V50.336ZM122.053 51.336V68.232H124.053V51.336H122.053ZM190.952 76.296L190.272 77.0288L190.276 77.0328L190.952 76.296ZM185.064 19.336L185.951 19.7977L185.954 19.7928L185.064 19.336ZM199.272 5.64L199.684 6.55124L199.689 6.54868L199.272 5.64ZM245.224 5.64L244.802 6.5465L244.809 6.54996L244.817 6.5533L245.224 5.64ZM259.56 19.336L258.67 19.7928L258.673 19.7977L259.56 19.336ZM253.544 76.296L254.22 77.0328L253.544 76.296ZM235.624 60.68L234.845 60.053L234.843 60.0553L235.624 60.68ZM235.624 26.888L234.843 27.5127L234.852 27.5234L234.861 27.5339L235.624 26.888ZM208.872 26.888L208.101 26.2516L208.099 26.2537L208.872 26.888ZM208.872 60.68L208.084 61.2953L208.092 61.3059L208.101 61.3164L208.872 60.68ZM222.312 85.28C208.812 85.28 198.636 81.9899 191.628 75.5592L190.276 77.0328C197.775 83.9141 208.506 87.28 222.312 87.28V85.28ZM191.632 75.5632C184.754 69.1758 181.2 58.7532 181.2 44.04H179.2C179.2 59.0228 182.814 70.1042 190.272 77.0288L191.632 75.5632ZM181.2 44.04C181.2 33.8924 182.809 25.8342 185.951 19.7977L184.177 18.8743C180.834 25.2965 179.2 33.7076 179.2 44.04H181.2ZM185.954 19.7928C189.097 13.6709 193.669 9.27031 199.684 6.55122L198.86 4.72878C192.416 7.64169 187.516 12.3718 184.174 18.8792L185.954 19.7928ZM199.689 6.54868C205.84 3.72277 213.369 2.28799 222.312 2.28799V0.287994C213.164 0.287994 205.333 1.75456 198.855 4.73132L199.689 6.54868ZM222.312 2.28799C231.256 2.28799 238.74 3.72299 244.802 6.5465L245.646 4.7335C239.25 1.75434 231.459 0.287994 222.312 0.287994V2.28799ZM244.817 6.5533C250.917 9.27386 255.529 13.6749 258.67 19.7928L260.45 18.8792C257.106 12.3677 252.16 7.63813 245.631 4.7267L244.817 6.5533ZM258.673 19.7977C261.815 25.8342 263.424 33.8924 263.424 44.04H265.424C265.424 33.7076 263.79 25.2965 260.447 18.8743L258.673 19.7977ZM263.424 44.04C263.424 58.7502 259.829 69.1711 252.868 75.5592L254.22 77.0328C261.765 70.1089 265.424 59.0258 265.424 44.04H263.424ZM252.868 75.5592C245.859 81.9909 235.725 85.28 222.312 85.28V87.28C236.035 87.28 246.722 83.9131 254.22 77.0328L252.868 75.5592ZM222.312 66.8C228.63 66.8 233.416 65.0407 236.405 61.3047L234.843 60.0553C232.371 63.146 228.282 64.8 222.312 64.8V66.8ZM236.403 61.307C239.432 57.5441 240.848 51.719 240.848 44.04H238.848C238.848 51.5503 237.448 56.8186 234.845 60.053L236.403 61.307ZM240.848 44.04C240.848 35.8755 239.442 29.8515 236.387 26.2421L234.861 27.5339C237.438 30.5805 238.848 35.9912 238.848 44.04H240.848ZM236.405 26.2633C233.416 22.5273 228.63 20.768 222.312 20.768V22.768C228.282 22.768 232.371 24.422 234.843 27.5127L236.405 26.2633ZM222.312 20.768C215.991 20.768 211.172 22.5282 208.101 26.2516L209.643 27.5244C212.204 24.4212 216.345 22.768 222.312 22.768V20.768ZM208.099 26.2537C205.139 29.8615 203.776 35.8798 203.776 44.04H205.776C205.776 35.9868 207.144 30.5704 209.645 27.5223L208.099 26.2537ZM203.776 44.04C203.776 51.7143 205.148 57.534 208.084 61.2953L209.66 60.0647C207.135 56.8287 205.776 51.555 205.776 44.04H203.776ZM208.101 61.3164C211.172 65.0398 215.991 66.8 222.312 66.8V64.8C216.345 64.8 212.204 63.1468 209.643 60.0436L208.101 61.3164ZM291.433 82.568L291.029 83.4829L291.037 83.4865L291.046 83.4899L291.433 82.568ZM277.737 71.432L276.907 71.99L276.912 71.9967L277.737 71.432ZM272.745 2.56799V1.56799H271.745V2.56799H272.745ZM296.809 2.56799H297.809V1.56799H296.809V2.56799ZM326.633 2.56799V1.56799H325.633V2.56799H326.633ZM350.697 2.56799H351.697V1.56799H350.697V2.56799ZM345.705 71.432L344.875 70.874L344.873 70.8773L345.705 71.432ZM332.009 82.568L332.401 83.4879L332.408 83.4851L332.009 82.568ZM311.785 85.28C304.212 85.28 297.564 84.0599 291.82 81.6461L291.046 83.4899C297.078 86.0254 303.998 87.28 311.785 87.28V85.28ZM291.837 81.6531C286.191 79.1623 281.777 75.5658 278.562 70.8673L276.912 71.9967C280.353 77.0262 285.07 80.8537 291.029 83.4829L291.837 81.6531ZM278.567 70.874C275.37 66.1205 273.745 60.266 273.745 53.256H271.745C271.745 60.582 273.448 66.8449 276.907 71.99L278.567 70.874ZM273.745 53.256V2.56799H271.745V53.256H273.745ZM272.745 3.56799H296.809V1.56799H272.745V3.56799ZM295.809 2.56799V50.696H297.809V2.56799H295.809ZM295.809 50.696C295.809 55.8827 297.095 59.9568 299.843 62.7281C302.592 65.501 306.637 66.8 311.785 66.8V64.8C306.949 64.8 303.506 63.5817 301.263 61.3199C299.019 59.0565 297.809 55.5787 297.809 50.696H295.809ZM311.785 66.8C316.732 66.8 320.685 65.5165 323.488 62.807L322.098 61.369C319.781 63.6088 316.395 64.8 311.785 64.8V66.8ZM323.488 62.807C326.315 60.0743 327.633 55.9672 327.633 50.696H325.633C325.633 55.6648 324.391 59.1524 322.098 61.369L323.488 62.807ZM327.633 50.696V2.56799H325.633V50.696H327.633ZM326.633 3.56799H350.697V1.56799H326.633V3.56799ZM349.697 2.56799V53.256H351.697V2.56799H349.697ZM349.697 53.256C349.697 60.266 348.072 66.1205 344.875 70.874L346.535 71.99C349.995 66.8449 351.697 60.582 351.697 53.256H349.697ZM344.873 70.8773C341.747 75.5658 337.34 79.1597 331.61 81.6509L332.408 83.4851C338.454 80.8563 343.177 77.0262 346.537 71.9867L344.873 70.8773ZM331.617 81.6482C325.962 84.0598 319.359 85.28 311.785 85.28V87.28C319.571 87.28 326.451 86.0256 332.401 83.4878L331.617 81.6482ZM379.683 85H378.683V86H379.683V85ZM379.683 20.488H380.683V19.488H379.683V20.488ZM356.515 20.488H355.515V21.488H356.515V20.488ZM356.515 2.56799V1.56799H355.515V2.56799H356.515ZM426.915 2.56799H427.915V1.56799H426.915V2.56799ZM426.915 20.488V21.488H427.915V20.488H426.915ZM403.747 20.488V19.488H402.747V20.488H403.747ZM403.747 85V86H404.747V85H403.747ZM380.683 85V20.488H378.683V85H380.683ZM379.683 19.488H356.515V21.488H379.683V19.488ZM357.515 20.488V2.56799H355.515V20.488H357.515ZM356.515 3.56799H426.915V1.56799H356.515V3.56799ZM425.915 2.56799V20.488H427.915V2.56799H425.915ZM426.915 19.488H403.747V21.488H426.915V19.488ZM402.747 20.488V85H404.747V20.488H402.747ZM403.747 84H379.683V86H403.747V84Z" fill="#4282B8" mask="url(#path-1-outside-1_40_2973)"/>
</svg>
