<svg width="222" height="133" viewBox="0 0 222 133" fill="none" xmlns="http://www.w3.org/2000/svg">
<mask id="mask0_104_12045" style="mask-type:luminance" maskUnits="userSpaceOnUse" x="73" y="1" width="76" height="87">
<path d="M73.4381 1.37158H148.474V87.7269H73.4381V1.37158Z" fill="white"/>
</mask>
<g mask="url(#mask0_104_12045)">
<path d="M110.968 87.7269V82.9334L73.4381 59.0534V63.847L110.968 87.7269ZM110.968 54.0474V58.871L125.828 49.404L122.061 47.0072L110.968 54.0474ZM111.028 1.37158V6.16743L148.557 30.0451V25.2516L111.028 1.37158ZM111.028 35.0534V30.2275L96.1376 39.6945L99.937 42.0913L111.028 35.0534Z" fill="#4282B8"/>
</g>
<mask id="mask1_104_12045" style="mask-type:luminance" maskUnits="userSpaceOnUse" x="73" y="10" width="76" height="69">
<path d="M73.4381 10.7783H148.474V78.1373H73.4381V10.7783Z" fill="white"/>
</mask>
<g mask="url(#mask1_104_12045)">
<path d="M110.968 78.1072V73.2837L73.4381 49.4037V54.2273L110.968 78.1072ZM110.968 68.4901L133.394 54.1996L129.625 51.8005L110.968 63.6943V68.4901ZM111.028 10.9907V15.8143L148.557 39.6942V34.8684L111.028 10.9907ZM111.028 20.6078L88.5734 34.9007L92.3705 37.2975L111.028 25.4037V20.6078Z" fill="black"/>
<path d="M110.968 68.4901V63.6643L73.4381 39.7866V44.6102L110.968 68.4901ZM110.968 78.1072L140.991 59.0231L137.194 56.594L110.968 73.3137V78.1072ZM111.028 20.6078V25.4337L148.557 49.3137V44.4901L111.028 20.6078ZM111.028 10.9907L81.0046 30.0771L84.774 32.5039L111.028 15.7843V10.9907Z" fill="#4A4C4E"/>
</g>
<mask id="mask2_104_12045" style="mask-type:luminance" maskUnits="userSpaceOnUse" x="73" y="1" width="76" height="87">
<path d="M73.4381 1.37158H148.474V87.7269H73.4381V1.37158Z" fill="white"/>
</mask>
<g mask="url(#mask2_104_12045)">
<path d="M110.968 58.871V54.0474L73.4381 30.1675V34.991L110.968 58.871ZM110.968 87.7269L148.557 63.8169L144.76 61.4202L110.968 82.9334V87.7269ZM111.028 30.2275V35.0534L148.557 58.931V54.1075L111.028 30.2275ZM111.028 1.37158L73.4381 25.2816L77.2075 27.6783L111.028 6.16743V1.37158Z" fill="#B1C6DC"/>
</g>
<path d="M37.3736 109.653V108.552H46.797V109.653H37.3736ZM46.797 105.631V106.684H37.3736V105.631H46.797ZM49.6992 103.597H34.52V115.234H37.3736V111.498H46.797V112.431C46.797 112.791 46.6768 112.886 46.2467 112.911C45.8859 112.934 44.3273 112.934 43.1525 112.863C43.5133 113.509 43.8948 114.442 44.0405 115.137C45.9576 115.137 47.396 115.114 48.3811 114.779C49.3639 114.419 49.6992 113.821 49.6992 112.479V103.597ZM43.4393 100.412V99.2856H50.3699V97.2744H43.4393V96.1961H51.4267V94.0672H43.4393V92.8457H40.5394V94.0672H32.9128V96.1961H40.5394V97.2744H33.8008V99.2856H40.5394V100.412H31.449V102.541H52.65V100.412H43.4393Z" fill="#4379A6"/>
<path d="M68.1889 103.908C67.3495 104.1 66.5101 104.266 65.6706 104.458V100.221H68.1173V97.5144H65.6706V92.8687H62.9118V97.5144H61.8088C61.9776 96.5077 62.1209 95.5033 62.2412 94.4965L59.8431 94.0901C59.5795 96.891 59.0754 99.8373 58.1897 101.728C58.7401 102.04 59.7946 102.71 60.227 103.07C60.6109 102.255 60.9462 101.297 61.2329 100.221H62.9118V105.033C61.1867 105.393 59.5795 105.702 58.3076 105.919L58.9806 108.72C60.1553 108.457 61.4989 108.145 62.9118 107.833V115.234H65.6706V107.164C66.6303 106.949 67.5414 106.709 68.4757 106.469L68.1889 103.908ZM75.6699 111.498V102.733H80.2278V99.9805H75.6699V92.8687H72.7931V99.9805H68.3323V102.733H72.7931V111.498H67.2778V114.322H80.8499V111.498H75.6699Z" fill="black"/>
<path d="M94.0626 98.6875C95.4756 99.8836 97.3464 101.56 98.1627 102.638L100.32 100.842C99.386 99.7889 97.5152 98.1841 96.0768 97.1058L94.0626 98.6875ZM92.5502 103.045C92.5502 102.758 92.5502 102.47 92.5502 102.206V96.4847H102.168V103.045H92.5502ZM108.019 103.045H105.045V93.8501H89.6735V103.045H86.4106V105.774H89.4816C89.1462 108.432 88.2582 111.186 85.8833 113.221C86.5077 113.604 87.6107 114.634 88.0432 115.209C90.8714 112.791 91.9744 109.152 92.3583 105.774H102.168V111.856C102.168 112.359 101.976 112.528 101.446 112.551C100.896 112.551 99.0252 112.574 97.4181 112.456C97.8274 113.221 98.2829 114.442 98.4009 115.234C100.873 115.234 102.526 115.209 103.581 114.754C104.661 114.299 105.045 113.532 105.045 111.904V105.774H108.019V103.045Z" fill="black"/>
<path d="M126.337 110.683V98.3044H134.394V95.335H115.235V98.3044H123.077V110.683H113.94V113.558H135.738V110.683H126.337Z" fill="black"/>
<path d="M157.583 106.183C157.678 105.488 157.75 104.77 157.821 104.051H154.968C154.921 104.793 154.847 105.488 154.729 106.183H151.228V108.552H154.128C153.386 110.42 151.994 111.953 149.117 113.006C149.716 113.532 150.461 114.539 150.773 115.209C154.561 113.724 156.263 111.401 157.079 108.552H159.861C159.597 110.78 159.285 111.81 158.95 112.119C158.709 112.336 158.517 112.385 158.182 112.385C157.798 112.385 156.982 112.359 156.119 112.265C156.552 112.983 156.864 114.107 156.887 114.897C157.99 114.945 158.973 114.922 159.572 114.851C160.291 114.754 160.795 114.562 161.322 114.013C162.018 113.246 162.451 111.401 162.835 107.259C162.881 106.924 162.93 106.183 162.93 106.183H157.583ZM158.638 97.6092C158.231 98.3758 157.701 99.0708 157.053 99.6458C156.263 99.0454 155.592 98.3527 155.065 97.6092H158.638ZM163.193 97.6092V95.2402H156.119C156.455 94.6883 156.744 94.1388 157.007 93.5638L154.346 92.8457C153.409 95.0485 151.635 97.2028 149.764 98.5444C150.435 98.9277 151.538 99.692 152.091 100.147C152.449 99.8374 152.81 99.5003 153.171 99.1193C153.673 99.8374 154.248 100.507 154.873 101.105C154.01 101.56 153.002 101.92 151.947 102.207L152.042 101.657L150.317 101.082L149.933 101.202H148.782L149.956 99.9806C149.501 99.6458 148.902 99.2856 148.206 98.9277C149.549 97.7778 150.891 96.3162 151.707 94.9769L149.885 93.827L149.452 93.9217H141.708V96.3162H147.464C147.006 96.8426 146.478 97.3714 145.951 97.8263C145.304 97.5376 144.633 97.2744 144.057 97.0597L142.258 98.8792C143.745 99.4772 145.544 100.387 146.888 101.202H141.396V103.691H144.393C143.553 105.582 142.307 107.45 140.989 108.623C141.419 109.39 142.043 110.563 142.284 111.378C143.433 110.325 144.441 108.72 145.281 106.949V112.073C145.281 112.359 145.183 112.408 144.897 112.431C144.584 112.431 143.625 112.431 142.739 112.408C143.098 113.174 143.481 114.322 143.553 115.114C145.04 115.114 146.12 115.065 146.934 114.611C147.773 114.179 147.965 113.412 147.965 112.119V103.691H149.237C149.022 104.913 148.733 106.111 148.469 106.995L150.389 107.882C150.819 106.804 151.228 105.368 151.564 103.883C151.85 104.266 152.091 104.626 152.234 104.89C154.056 104.386 155.712 103.74 157.127 102.878C158.566 103.763 160.196 104.481 162.018 104.936C162.402 104.218 163.193 103.093 163.818 102.518C162.21 102.207 160.723 101.729 159.405 101.105C160.388 100.124 161.179 98.9739 161.803 97.6092H163.193Z" fill="black"/>
<path d="M186.236 111.833H177.724V108.577H186.236V111.833ZM183.096 98.6874H180.194V106.062H174.942V115.208H177.724V114.322H186.236V115.185H189.162V106.062H183.096V103.453H190.577V100.939H183.096V98.6874ZM182.159 95.6233V92.8687H179.188V95.6233H170.65V101.657C170.65 105.104 170.481 110.133 168.516 113.558C169.186 113.867 170.458 114.682 170.985 115.16C173.143 111.426 173.504 105.511 173.504 101.657V98.3272H190.889V95.6233H182.159Z" fill="black"/>
<path d="M85.7013 128.179L87.0333 128.193L87.0194 129.523L85.6874 129.509M88.3653 128.209L89.6973 128.223L89.6834 129.553L88.3514 129.539M91.0293 128.239L92.3613 128.253L92.3474 129.583L91.0154 129.569M93.6933 128.269L95.0253 128.283L95.0114 129.613L93.6794 129.599M96.3573 128.299L97.6893 128.313L97.6754 129.643L96.3434 129.629M99.0213 128.329L100.353 128.343L100.339 129.673L99.0074 129.659M101.685 128.359L103.017 128.373L103.001 129.703L101.669 129.689M104.349 128.389L105.681 128.403L105.665 129.733L104.333 129.719M107.013 128.419L108.345 128.433L108.329 129.763L106.997 129.749M109.677 128.449L111.009 128.463L110.993 129.793L109.661 129.779M112.341 128.479L113.673 128.493L113.657 129.823L112.325 129.809M115.005 128.509L116.337 128.525L116.321 129.853L114.989 129.839M117.669 128.539L119.001 128.555L118.985 129.885L117.653 129.869M120.331 128.569L121.663 128.585L121.649 129.915L120.317 129.899M122.995 128.599L124.327 128.615L124.313 129.945L122.981 129.929M125.659 128.629L126.991 128.645L126.977 129.975L125.645 129.959M128.323 128.659L129.655 128.675L129.641 130.005L128.309 129.989M130.987 128.689L132.319 128.705L132.305 130.035L130.973 130.019M133.651 128.719L134.983 128.735L134.969 130.065L133.637 130.049" fill="#4282B8"/>
</svg>
